<?xml version="1.0" encoding="UTF-8"?>
<svg xmlns="http://www.w3.org/2000/svg" xmlns:xlink="http://www.w3.org/1999/xlink" xmlns:svgjs="http://svgjs.com/svgjs" version="1.1" width="512" height="512" x="0" y="0" viewBox="0 0 512 512" style="enable-background:new 0 0 512 512" xml:space="preserve" class="">
  <g>
    <g>
      <path d="m145.688 73.37 20 125c1.164 7.277 7.442 12.63 14.812 12.63h150c7.369 0 13.647-5.353 14.812-12.63l20-125c2.075-12.96-12.394-22.154-23.246-14.774l-39.735 27.02-36.224-36.223c-5.857-5.858-15.355-5.858-21.213 0l-36.224 36.223-39.735-27.02c-10.85-7.38-25.322 1.812-23.247 14.774zm56.377 44.034c5.955 4.05 13.949 3.295 19.041-1.797l34.394-34.394 34.394 34.393c5.093 5.093 13.085 5.847 19.041 1.797l21.264-14.459-12.49 78.056h-124.418l-12.489-78.055z" fill="#b3ccf5" data-original="#000000" class=""/>
      <circle cx="255.5" cy="15" r="15" fill="#b3ccf5" data-original="#000000" class=""/>
      <circle cx="360.5" cy="30" r="15" fill="#b3ccf5" data-original="#000000" class=""/>
      <circle cx="150.5" cy="30" r="15" fill="#b3ccf5" data-original="#000000" class=""/>
      <path d="m466.5 332h-125.333v-76c0-8.284-6.716-15-15-15h-140.334c-8.284 0-15 6.716-15 15v46h-125.333c-8.284 0-15 6.716-15 15v180c0 8.284 6.716 15 15 15h421c8.284 0 15-6.716 15-15v-150c0-8.284-6.716-15-15-15zm-406 0h110.333v150h-110.333zm140.333-61h110.334v211h-110.334zm250.667 211h-110.333v-120h110.333z" fill="#b3ccf5" data-original="#000000" class=""/>
      <path d="m256 301h-15c-8.284 0-15 6.716-15 15s6.716 15 15 15v45c0 8.284 6.716 15 15 15s15-6.716 15-15v-60c0-8.284-6.716-15-15-15z" fill="#b3ccf5" data-original="#000000" class=""/>
    </g>
  </g>
</svg>
